%FSLAX23Y23*%
%MOIN*%
G04 EasyPC Gerber Version 17.0 Build 3379 *
%ADD22R,0.02200X0.04000*%
%ADD14R,0.06000X0.06000*%
%ADD18C,0.02500*%
%ADD15C,0.06000*%
%ADD23R,0.04000X0.02200*%
X0Y0D02*
D02*
D14*
X53Y1233D03*
X1103D03*
D02*
D15*
X53Y333D03*
Y433D03*
Y532D03*
Y632D03*
Y733D03*
Y833D03*
Y933D03*
Y1033D03*
Y1133D03*
X603D03*
X1103Y333D03*
Y433D03*
Y532D03*
Y632D03*
Y733D03*
Y833D03*
Y933D03*
Y1033D03*
Y1133D03*
D02*
D18*
X53Y433D02*
X203D01*
Y483*
X353*
X53Y433D02*
Y933*
X203D01*
Y733*
X353*
X53Y1033D02*
X253D01*
Y783*
X353*
Y632D02*
X803D01*
X353Y683D02*
X153D01*
Y833*
X53*
X553Y983D02*
X502D01*
Y783*
X803*
X603Y983D02*
X753D01*
X603Y1133D02*
X753D01*
Y983*
Y833*
X803*
Y383D02*
Y333D01*
X1103*
X803Y433D02*
X1103D01*
X803Y632D02*
X903D01*
X803Y783D02*
X903D01*
Y632D02*
Y783D01*
Y632D02*
Y733D01*
X1103*
X903Y783D02*
Y883D01*
X803*
X903Y1033D02*
Y883D01*
X1103Y1033D02*
X903D01*
X1103Y1233D02*
X903D01*
Y1033*
D02*
D22*
X353Y632D03*
X553Y983D03*
X603D03*
X803Y632D03*
D02*
D23*
X353Y383D03*
Y433D03*
Y483D03*
Y532D03*
Y583D03*
Y683D03*
Y733D03*
Y783D03*
Y833D03*
Y883D03*
X803Y383D03*
Y433D03*
Y483D03*
Y532D03*
Y583D03*
Y683D03*
Y733D03*
Y783D03*
Y833D03*
Y883D03*
X0Y0D02*
M02*
