%FSLAX23Y23*%
%MOIN*%
G04 EasyPC Gerber Version 17.0 Build 3379 *
%ADD10C,0.00100*%
%ADD11C,0.00500*%
%ADD12C,0.00800*%
%ADD13C,0.01000*%
X0Y0D02*
D02*
D10*
X529Y2253D02*
X548Y2260D01*
X529Y2268*
X537Y2278D02*
X535Y2281D01*
Y2285*
X537Y2288*
X540Y2290*
X545*
X546Y2288*
X548Y2285*
Y2282*
X546Y2279*
X545Y2278*
X543*
X542Y2279*
X540Y2282*
Y2285*
X542Y2288*
X543Y2290*
X545D02*
X548D01*
Y2303D02*
X535D01*
X540D02*
X537Y2304D01*
X535Y2307*
Y2310*
X537Y2313*
X548Y2334D02*
X535D01*
X531D02*
X537Y2353*
X535Y2356D01*
Y2360*
X537Y2363*
X540Y2365*
X545*
X546Y2363*
X548Y2360*
Y2357*
X546Y2354*
X545Y2353*
X543*
X542Y2354*
X540Y2357*
Y2360*
X542Y2363*
X543Y2365*
X545D02*
X548D01*
X535Y2381D02*
Y2387D01*
X532Y2384D02*
X546D01*
X548Y2385*
Y2387*
X546Y2388*
Y2415D02*
X548Y2413D01*
Y2410*
Y2407*
X546Y2404*
X543Y2403*
X538*
X537Y2404*
X535Y2407*
Y2410*
X537Y2413*
X538Y2415*
X540*
X542Y2413*
X543Y2410*
Y2407*
X542Y2404*
X540Y2403*
X535Y2428D02*
X543D01*
X546Y2429*
X548Y2432*
Y2435*
X546Y2438*
X543Y2440*
X535D02*
X548D01*
Y2453D02*
X535D01*
X540D02*
X537Y2454D01*
X535Y2457*
Y2460*
X537Y2463*
X548Y2510D02*
X529D01*
X542Y2503*
Y2515*
X829Y2253D02*
X848Y2260D01*
X829Y2268*
X837Y2278D02*
X835Y2281D01*
Y2285*
X837Y2288*
X840Y2290*
X845*
X846Y2288*
X848Y2285*
Y2282*
X846Y2279*
X845Y2278*
X843*
X842Y2279*
X840Y2282*
Y2285*
X842Y2288*
X843Y2290*
X845D02*
X848D01*
Y2303D02*
X835D01*
X840D02*
X837Y2304D01*
X835Y2307*
Y2310*
X837Y2313*
X848Y2334D02*
X835D01*
X831D02*
X837Y2353*
X835Y2356D01*
Y2360*
X837Y2363*
X840Y2365*
X845*
X846Y2363*
X848Y2360*
Y2357*
X846Y2354*
X845Y2353*
X843*
X842Y2354*
X840Y2357*
Y2360*
X842Y2363*
X843Y2365*
X845D02*
X848D01*
X835Y2381D02*
Y2387D01*
X832Y2384D02*
X846D01*
X848Y2385*
Y2387*
X846Y2388*
Y2415D02*
X848Y2413D01*
Y2410*
Y2407*
X846Y2404*
X843Y2403*
X838*
X837Y2404*
X835Y2407*
Y2410*
X837Y2413*
X838Y2415*
X840*
X842Y2413*
X843Y2410*
Y2407*
X842Y2404*
X840Y2403*
X835Y2428D02*
X843D01*
X846Y2429*
X848Y2432*
Y2435*
X846Y2438*
X843Y2440*
X835D02*
X848D01*
Y2453D02*
X835D01*
X840D02*
X837Y2454D01*
X835Y2457*
Y2460*
X837Y2463*
X846Y2504D02*
X848Y2507D01*
Y2510*
X846Y2513*
X843Y2515*
X840Y2513*
X838Y2510*
Y2507*
Y2510D02*
X837Y2513D01*
X834Y2515*
X831Y2513*
X829Y2510*
Y2507*
X831Y2504*
X1129Y2253D02*
X1148Y2260D01*
X1129Y2268*
X1137Y2278D02*
X1135Y2281D01*
Y2285*
X1137Y2288*
X1140Y2290*
X1145*
X1146Y2288*
X1148Y2285*
Y2282*
X1146Y2279*
X1145Y2278*
X1143*
X1142Y2279*
X1140Y2282*
Y2285*
X1142Y2288*
X1143Y2290*
X1145D02*
X1148D01*
Y2303D02*
X1135D01*
X1140D02*
X1137Y2304D01*
X1135Y2307*
Y2310*
X1137Y2313*
X1148Y2334D02*
X1135D01*
X1131D02*
X1137Y2353*
X1135Y2356D01*
Y2360*
X1137Y2363*
X1140Y2365*
X1145*
X1146Y2363*
X1148Y2360*
Y2357*
X1146Y2354*
X1145Y2353*
X1143*
X1142Y2354*
X1140Y2357*
Y2360*
X1142Y2363*
X1143Y2365*
X1145D02*
X1148D01*
X1135Y2381D02*
Y2387D01*
X1132Y2384D02*
X1146D01*
X1148Y2385*
Y2387*
X1146Y2388*
Y2415D02*
X1148Y2413D01*
Y2410*
Y2407*
X1146Y2404*
X1143Y2403*
X1138*
X1137Y2404*
X1135Y2407*
Y2410*
X1137Y2413*
X1138Y2415*
X1140*
X1142Y2413*
X1143Y2410*
Y2407*
X1142Y2404*
X1140Y2403*
X1135Y2428D02*
X1143D01*
X1146Y2429*
X1148Y2432*
Y2435*
X1146Y2438*
X1143Y2440*
X1135D02*
X1148D01*
Y2453D02*
X1135D01*
X1140D02*
X1137Y2454D01*
X1135Y2457*
Y2460*
X1137Y2463*
X1148Y2515D02*
Y2503D01*
X1137Y2513*
X1134Y2515*
X1131Y2513*
X1129Y2510*
Y2506*
X1131Y2503*
X1429Y2253D02*
X1448Y2260D01*
X1429Y2268*
X1437Y2278D02*
X1435Y2281D01*
Y2285*
X1437Y2288*
X1440Y2290*
X1445*
X1446Y2288*
X1448Y2285*
Y2282*
X1446Y2279*
X1445Y2278*
X1443*
X1442Y2279*
X1440Y2282*
Y2285*
X1442Y2288*
X1443Y2290*
X1445D02*
X1448D01*
Y2303D02*
X1435D01*
X1440D02*
X1437Y2304D01*
X1435Y2307*
Y2310*
X1437Y2313*
X1448Y2334D02*
X1435D01*
X1431D02*
X1437Y2353*
X1435Y2356D01*
Y2360*
X1437Y2363*
X1440Y2365*
X1445*
X1446Y2363*
X1448Y2360*
Y2357*
X1446Y2354*
X1445Y2353*
X1443*
X1442Y2354*
X1440Y2357*
Y2360*
X1442Y2363*
X1443Y2365*
X1445D02*
X1448D01*
X1435Y2381D02*
Y2387D01*
X1432Y2384D02*
X1446D01*
X1448Y2385*
Y2387*
X1446Y2388*
Y2415D02*
X1448Y2413D01*
Y2410*
Y2407*
X1446Y2404*
X1443Y2403*
X1438*
X1437Y2404*
X1435Y2407*
Y2410*
X1437Y2413*
X1438Y2415*
X1440*
X1442Y2413*
X1443Y2410*
Y2407*
X1442Y2404*
X1440Y2403*
X1435Y2428D02*
X1443D01*
X1446Y2429*
X1448Y2432*
Y2435*
X1446Y2438*
X1443Y2440*
X1435D02*
X1448D01*
Y2453D02*
X1435D01*
X1440D02*
X1437Y2454D01*
X1435Y2457*
Y2460*
X1437Y2463*
X1448Y2506D02*
Y2512D01*
Y2509D02*
X1429D01*
X1432Y2506*
X2957Y2453D02*
X2976D01*
X2967Y2445*
X2976Y2437*
X2957*
X2962Y2428D02*
X2959Y2426D01*
X2957Y2423*
Y2420*
X2959Y2417*
X2962Y2415*
X2965*
X2968Y2417*
X2970Y2420*
Y2423*
X2968Y2426*
X2965Y2428*
X2962*
X2965Y2390D02*
X2968Y2392D01*
X2970Y2395*
Y2398*
X2968Y2401*
X2965Y2403*
X2962*
X2959Y2401*
X2957Y2398*
Y2395*
X2959Y2392*
X2962Y2390*
X2957D02*
X2976D01*
X2959Y2365D02*
X2957Y2367D01*
Y2370*
Y2373*
X2959Y2376*
X2962Y2378*
X2967*
X2968Y2376*
X2970Y2373*
Y2370*
X2968Y2367*
X2967Y2365*
X2965*
X2963Y2367*
X2962Y2370*
Y2373*
X2963Y2376*
X2965Y2378*
X3257Y2445D02*
X3267D01*
X3276Y2453*
X3267Y2445D02*
X3276Y2437D01*
X3268Y2428D02*
X3270Y2424D01*
Y2420*
X3268Y2417*
X3265Y2415*
X3260*
X3259Y2417*
X3257Y2420*
Y2423*
X3259Y2426*
X3260Y2428*
X3262*
X3263Y2426*
X3265Y2423*
Y2420*
X3263Y2417*
X3262Y2415*
X3260D02*
X3257D01*
X3270Y2403D02*
X3259D01*
X3257Y2401*
Y2398*
X3259Y2396*
X3263*
X3259D02*
X3257Y2395D01*
Y2392*
X3259Y2390*
X3270*
X3557Y2453D02*
X3576D01*
Y2442*
X3574Y2438*
X3571Y2437*
X3568Y2438*
X3567Y2442*
Y2453*
X3557Y2421D02*
X3570D01*
X3574D02*
X3570Y2399*
Y2393D01*
X3573Y2396D02*
X3559D01*
X3557Y2395*
Y2393*
X3559Y2392*
X3568Y2365D02*
X3570Y2368D01*
Y2373*
X3568Y2376*
X3565Y2378*
X3562*
X3559Y2376*
X3557Y2373*
Y2368*
X3559Y2365*
X3557Y2353D02*
X3576D01*
X3565D02*
X3568Y2351D01*
X3570Y2348*
Y2345*
X3568Y2342*
X3565Y2340*
X3557*
X3857Y2453D02*
X3876D01*
Y2442*
X3874Y2438*
X3871Y2437*
X3868Y2438*
X3867Y2442*
Y2453*
Y2442D02*
X3857Y2437D01*
X3862Y2428D02*
X3859Y2426D01*
X3857Y2423*
Y2420*
X3859Y2417*
X3862Y2415*
X3865*
X3868Y2417*
X3870Y2420*
Y2423*
X3868Y2426*
X3865Y2428*
X3862*
X3857Y2395D02*
Y2396D01*
X3876*
X3857Y2370D02*
Y2371D01*
X3876*
X4207Y2495D02*
X4226D01*
Y2503D02*
Y2487D01*
X4207Y2478D02*
X4226D01*
X4215D02*
X4218Y2476D01*
X4220Y2473*
Y2470*
X4218Y2467*
X4215Y2465*
X4207*
Y2453D02*
X4220D01*
X4215D02*
X4218Y2451D01*
X4220Y2448*
Y2445*
X4218Y2442*
X4212Y2428D02*
X4209Y2426D01*
X4207Y2423*
Y2420*
X4209Y2417*
X4212Y2415*
X4215*
X4218Y2417*
X4220Y2420*
Y2423*
X4218Y2426*
X4215Y2428*
X4212*
X4220Y2399D02*
Y2393D01*
X4223Y2396D02*
X4209D01*
X4207Y2395*
Y2393*
X4209Y2392*
X4220Y2374D02*
Y2368D01*
X4223Y2371D02*
X4209D01*
X4207Y2370*
Y2368*
X4209Y2367*
X4207Y2345D02*
Y2346D01*
X4226*
X4209Y2315D02*
X4207Y2317D01*
Y2320*
Y2323*
X4209Y2326*
X4212Y2328*
X4217*
X4218Y2326*
X4220Y2323*
Y2320*
X4218Y2317*
X4217Y2315*
X4215*
X4213Y2317*
X4212Y2320*
Y2323*
X4213Y2326*
X4215Y2328*
D02*
D11*
X278Y87D02*
Y124D01*
X299*
X306Y121*
X309Y115*
X306Y109*
X299Y106*
X278*
X328Y124D02*
Y87D01*
X359*
X403D02*
X378D01*
X399Y109*
X403Y115*
X399Y121*
X393Y124*
X384*
X378Y121*
X653Y112D02*
Y149D01*
X674*
X681Y146*
X684Y140*
X681Y134*
X674Y131*
X653*
X703Y149D02*
Y112D01*
X734*
X759D02*
X771D01*
X765D02*
Y149D01*
X759Y143*
X1643Y512D02*
Y524D01*
Y518D02*
X1606D01*
Y512D02*
Y524D01*
X1643Y553D02*
X1606D01*
X1624Y568*
X1606Y584*
X1643*
X1606Y603D02*
X1634D01*
X1640Y606*
X1643Y612*
Y624*
X1640Y631*
X1634Y634*
X1606*
X1803Y1412D02*
X1818Y1449D01*
X1834Y1412*
X1809Y1428D02*
X1828D01*
X1853Y1412D02*
Y1437D01*
Y1428D02*
X1856Y1434D01*
X1862Y1437*
X1868*
X1874Y1434*
X1928Y1428D02*
X1924Y1434D01*
X1918Y1437*
X1912*
X1906Y1434*
X1903Y1428*
Y1421*
X1906Y1415*
X1912Y1412*
X1918*
X1924Y1415*
X1928Y1421*
Y1412D02*
Y1449D01*
X1953Y1437D02*
Y1421D01*
X1956Y1415*
X1962Y1412*
X1968*
X1974Y1415*
X1978Y1421*
Y1437D02*
Y1412D01*
X2015D02*
Y1437D01*
Y1446D02*
X2053Y1412*
Y1437D01*
Y1428D02*
X2056Y1434D01*
X2062Y1437*
X2068*
X2074Y1434*
X2078Y1428*
Y1412*
X2103Y1421D02*
X2106Y1415D01*
X2112Y1412*
X2118*
X2124Y1415*
X2128Y1421*
Y1428*
X2124Y1434*
X2118Y1437*
X2112*
X2106Y1434*
X2103Y1428*
Y1421*
X2153Y1412D02*
Y1449D01*
X2184Y1412*
Y1449*
X2203Y1434D02*
X2209Y1437D01*
X2218*
X2224Y1434*
X2228Y1428*
Y1418*
X2224Y1415*
X2218Y1412*
X2212*
X2206Y1415*
X2203Y1418*
Y1421*
X2206Y1424*
X2212Y1428*
X2218*
X2224Y1424*
X2228Y1421*
Y1418D02*
Y1412D01*
X2253D02*
Y1437D01*
Y1428D02*
X2256Y1434D01*
X2262Y1437*
X2268*
X2274Y1434*
X2278Y1428*
Y1412*
X2303Y1421D02*
X2306Y1415D01*
X2312Y1412*
X2318*
X2324Y1415*
X2328Y1421*
Y1428*
X2324Y1434*
X2318Y1437*
X2312*
X2306Y1434*
X2303Y1428*
Y1421*
X3052Y268D02*
Y231D01*
X3031*
X3024Y234*
X3021Y240*
X3024Y247*
X3031Y250*
X3052*
X3031D02*
X3021Y268D01*
X2987D02*
Y231D01*
X3002Y256*
X2977*
X3052Y418D02*
Y381D01*
X3031*
X3024Y384*
X3021Y390*
X3024Y397*
X3031Y400*
X3052*
X3031D02*
X3021Y418D01*
X2999Y415D02*
X2993Y418D01*
X2987*
X2981Y415*
X2977Y409*
X2981Y403*
X2987Y400*
X2993*
X2987D02*
X2981Y397D01*
X2977Y390*
X2981Y384*
X2987Y381*
X2993*
X2999Y384*
X3574Y1428D02*
X3584D01*
Y1424*
X3581Y1418*
X3578Y1415*
X3571Y1412*
X3565*
X3559Y1415*
X3556Y1418*
X3553Y1424*
Y1437*
X3556Y1443*
X3559Y1446*
X3565Y1449*
X3571*
X3578Y1446*
X3581Y1443*
X3584Y1437*
X3603Y1412D02*
Y1449D01*
X3624*
X3631Y1446*
X3634Y1440*
X3631Y1434*
X3624Y1431*
X3603*
X3653Y1421D02*
X3656Y1415D01*
X3662Y1412*
X3674*
X3681Y1415*
X3684Y1421*
X3681Y1428*
X3674Y1431*
X3662*
X3656Y1434*
X3653Y1440*
X3656Y1446*
X3662Y1449*
X3674*
X3681Y1446*
X3684Y1440*
D02*
D12*
X2603Y353D02*
X2668D01*
X2603Y502D02*
X2668D01*
X2938Y353D02*
X3003D01*
X2938Y403D02*
X2668D01*
Y303*
X2938*
Y403*
Y502D02*
X3003D01*
X2938Y553D02*
X2668D01*
Y453*
X2938*
Y553*
D02*
D13*
X303Y253D02*
Y153D01*
X403*
Y253*
X303*
X603D02*
Y153D01*
X703*
Y253*
X603*
X0Y0D02*
M02*
