%FSLAX23Y23*%
%MOIN*%
G04 EasyPC Gerber Version 17.0 Build 3379 *
%ADD11C,0.00500*%
%ADD19C,0.10000*%
X0Y0D02*
D02*
D11*
X353Y512D02*
X368Y549D01*
X384Y512*
X359Y527D02*
X378D01*
X353Y1112D02*
X368Y1149D01*
X384Y1112*
X359Y1127D02*
X378D01*
X453Y262D02*
X468Y299D01*
X484Y262*
X459Y278D02*
X477D01*
X453Y512D02*
X468Y549D01*
X484Y512*
X459Y527D02*
X477D01*
X453Y1112D02*
X468Y1149D01*
X484Y1112*
X459Y1127D02*
X477D01*
X553Y2362D02*
X568Y2399D01*
X584Y2362*
X559Y2378D02*
X578D01*
X553Y2462D02*
X568Y2499D01*
X584Y2462*
X559Y2478D02*
X578D01*
X553Y2562D02*
X568Y2599D01*
X584Y2562*
X559Y2578D02*
X578D01*
X753Y262D02*
X768Y299D01*
X784Y262*
X759Y278D02*
X778D01*
X753Y512D02*
X768Y549D01*
X784Y512*
X759Y527D02*
X778D01*
X753Y1112D02*
X768Y1149D01*
X784Y1112*
X759Y1127D02*
X778D01*
X853Y512D02*
X868Y549D01*
X884Y512*
X859Y527D02*
X877D01*
X853Y1112D02*
X868Y1149D01*
X884Y1112*
X859Y1127D02*
X877D01*
X853Y2362D02*
X868Y2399D01*
X884Y2362*
X859Y2378D02*
X877D01*
X853Y2462D02*
X868Y2499D01*
X884Y2462*
X859Y2478D02*
X877D01*
X853Y2562D02*
X868Y2599D01*
X884Y2562*
X859Y2578D02*
X877D01*
X1103Y512D02*
X1118Y549D01*
X1134Y512*
X1109Y527D02*
X1127D01*
X1153Y2362D02*
X1168Y2399D01*
X1184Y2362*
X1159Y2378D02*
X1178D01*
X1153Y2462D02*
X1168Y2499D01*
X1184Y2462*
X1159Y2478D02*
X1178D01*
X1153Y2562D02*
X1168Y2599D01*
X1184Y2562*
X1159Y2578D02*
X1178D01*
X1202Y512D02*
X1218Y549D01*
X1234Y512*
X1209Y527D02*
X1228D01*
X1303Y512D02*
X1318Y549D01*
X1334Y512*
X1309Y527D02*
X1328D01*
X1403Y512D02*
X1418Y549D01*
X1434Y512*
X1409Y527D02*
X1428D01*
X1453Y2362D02*
X1468Y2399D01*
X1484Y2362*
X1459Y2378D02*
X1478D01*
X1453Y2462D02*
X1468Y2499D01*
X1484Y2462*
X1459Y2478D02*
X1478D01*
X1453Y2562D02*
X1468Y2599D01*
X1484Y2562*
X1459Y2578D02*
X1478D01*
X1503Y512D02*
X1518Y549D01*
X1534Y512*
X1509Y527D02*
X1528D01*
X1503Y762D02*
X1518Y799D01*
X1534Y762*
X1509Y778D02*
X1528D01*
X1503Y1112D02*
X1518Y1149D01*
X1534Y1112*
X1509Y1127D02*
X1528D01*
X1503Y1712D02*
X1518Y1749D01*
X1534Y1712*
X1509Y1728D02*
X1528D01*
X1503Y2012D02*
X1518Y2049D01*
X1534Y2012*
X1509Y2028D02*
X1528D01*
X1603Y512D02*
X1618Y549D01*
X1634Y512*
X1609Y527D02*
X1628D01*
X1603Y762D02*
X1618Y799D01*
X1634Y762*
X1609Y778D02*
X1628D01*
X1603Y1112D02*
X1618Y1149D01*
X1634Y1112*
X1609Y1127D02*
X1628D01*
X1603Y1712D02*
X1618Y1749D01*
X1634Y1712*
X1609Y1728D02*
X1628D01*
X1603Y2012D02*
X1618Y2049D01*
X1634Y2012*
X1609Y2028D02*
X1628D01*
X1703Y512D02*
X1718Y549D01*
X1734Y512*
X1709Y527D02*
X1728D01*
X1703Y762D02*
X1718Y799D01*
X1734Y762*
X1709Y778D02*
X1728D01*
X1703Y1112D02*
X1718Y1149D01*
X1734Y1112*
X1709Y1127D02*
X1728D01*
X1703Y1712D02*
X1718Y1749D01*
X1734Y1712*
X1709Y1728D02*
X1728D01*
X1703Y2012D02*
X1718Y2049D01*
X1734Y2012*
X1709Y2028D02*
X1728D01*
X1803Y512D02*
X1818Y549D01*
X1834Y512*
X1809Y527D02*
X1828D01*
X1803Y762D02*
X1818Y799D01*
X1834Y762*
X1809Y778D02*
X1828D01*
X1803Y1112D02*
X1818Y1149D01*
X1834Y1112*
X1809Y1127D02*
X1828D01*
X1803Y1712D02*
X1818Y1749D01*
X1834Y1712*
X1809Y1728D02*
X1828D01*
X1803Y2012D02*
X1818Y2049D01*
X1834Y2012*
X1809Y2028D02*
X1828D01*
X1903Y512D02*
X1918Y549D01*
X1934Y512*
X1909Y527D02*
X1928D01*
X1903Y762D02*
X1918Y799D01*
X1934Y762*
X1909Y778D02*
X1928D01*
X1903Y1112D02*
X1918Y1149D01*
X1934Y1112*
X1909Y1127D02*
X1928D01*
X1903Y1712D02*
X1918Y1749D01*
X1934Y1712*
X1909Y1728D02*
X1928D01*
X1903Y2012D02*
X1918Y2049D01*
X1934Y2012*
X1909Y2028D02*
X1928D01*
X2003Y512D02*
X2018Y549D01*
X2034Y512*
X2009Y527D02*
X2028D01*
X2003Y762D02*
X2018Y799D01*
X2034Y762*
X2009Y778D02*
X2028D01*
X2003Y1112D02*
X2018Y1149D01*
X2034Y1112*
X2009Y1127D02*
X2028D01*
X2003Y1712D02*
X2018Y1749D01*
X2034Y1712*
X2009Y1728D02*
X2028D01*
X2003Y2012D02*
X2018Y2049D01*
X2034Y2012*
X2009Y2028D02*
X2028D01*
X2103Y762D02*
X2118Y799D01*
X2134Y762*
X2109Y778D02*
X2128D01*
X2103Y1112D02*
X2118Y1149D01*
X2134Y1112*
X2109Y1127D02*
X2128D01*
X2103Y1712D02*
X2118Y1749D01*
X2134Y1712*
X2109Y1728D02*
X2128D01*
X2103Y2012D02*
X2118Y2049D01*
X2134Y2012*
X2109Y2028D02*
X2128D01*
X2203Y762D02*
X2218Y799D01*
X2234Y762*
X2209Y778D02*
X2228D01*
X2203Y1112D02*
X2218Y1149D01*
X2234Y1112*
X2209Y1127D02*
X2228D01*
X2203Y1712D02*
X2218Y1749D01*
X2234Y1712*
X2209Y1728D02*
X2228D01*
X2203Y2012D02*
X2218Y2049D01*
X2234Y2012*
X2209Y2028D02*
X2228D01*
X2303Y762D02*
X2318Y799D01*
X2334Y762*
X2309Y778D02*
X2328D01*
X2303Y1112D02*
X2318Y1149D01*
X2334Y1112*
X2309Y1127D02*
X2328D01*
X2303Y1712D02*
X2318Y1749D01*
X2334Y1712*
X2309Y1728D02*
X2328D01*
X2303Y2012D02*
X2318Y2049D01*
X2334Y2012*
X2309Y2028D02*
X2328D01*
X2403Y762D02*
X2418Y799D01*
X2434Y762*
X2409Y778D02*
X2428D01*
X2403Y1112D02*
X2418Y1149D01*
X2434Y1112*
X2409Y1127D02*
X2428D01*
X2403Y1712D02*
X2418Y1749D01*
X2434Y1712*
X2409Y1728D02*
X2428D01*
X2403Y2012D02*
X2418Y2049D01*
X2434Y2012*
X2409Y2028D02*
X2428D01*
X2503Y762D02*
X2518Y799D01*
X2534Y762*
X2509Y778D02*
X2528D01*
X2503Y1112D02*
X2518Y1149D01*
X2534Y1112*
X2509Y1127D02*
X2528D01*
X2503Y1712D02*
X2518Y1749D01*
X2534Y1712*
X2509Y1728D02*
X2528D01*
X2503Y2012D02*
X2518Y2049D01*
X2534Y2012*
X2509Y2028D02*
X2528D01*
X2603Y762D02*
X2618Y799D01*
X2634Y762*
X2609Y778D02*
X2628D01*
X2603Y1112D02*
X2618Y1149D01*
X2634Y1112*
X2609Y1127D02*
X2628D01*
X2603Y1712D02*
X2618Y1749D01*
X2634Y1712*
X2609Y1728D02*
X2628D01*
X2603Y2012D02*
X2618Y2049D01*
X2634Y2012*
X2609Y2028D02*
X2628D01*
X2674Y431D02*
X2681Y428D01*
X2684Y421*
X2681Y415*
X2674Y412*
X2653*
Y449*
X2674*
X2681Y446*
X2684Y440*
X2681Y434*
X2674Y431*
X2653*
X2674Y581D02*
X2681Y578D01*
X2684Y571*
X2681Y565*
X2674Y562*
X2653*
Y599*
X2674*
X2681Y596*
X2684Y590*
X2681Y584*
X2674Y581*
X2653*
X2703Y762D02*
X2718Y799D01*
X2734Y762*
X2709Y778D02*
X2728D01*
X2703Y1112D02*
X2718Y1149D01*
X2734Y1112*
X2709Y1127D02*
X2728D01*
X2703Y1712D02*
X2718Y1749D01*
X2734Y1712*
X2709Y1728D02*
X2728D01*
X2703Y2012D02*
X2718Y2049D01*
X2734Y2012*
X2709Y2028D02*
X2728D01*
X2803Y762D02*
X2818Y799D01*
X2834Y762*
X2809Y778D02*
X2828D01*
X2803Y1112D02*
X2818Y1149D01*
X2834Y1112*
X2809Y1127D02*
X2828D01*
X2803Y1712D02*
X2818Y1749D01*
X2834Y1712*
X2809Y1728D02*
X2828D01*
X2803Y2012D02*
X2818Y2049D01*
X2834Y2012*
X2809Y2028D02*
X2828D01*
X2903Y762D02*
X2918Y799D01*
X2934Y762*
X2909Y778D02*
X2928D01*
X2903Y1112D02*
X2918Y1149D01*
X2934Y1112*
X2909Y1127D02*
X2928D01*
X2903Y1712D02*
X2918Y1749D01*
X2934Y1712*
X2909Y1728D02*
X2928D01*
X2903Y2012D02*
X2918Y2049D01*
X2934Y2012*
X2909Y2028D02*
X2928D01*
X3003Y2362D02*
X3018Y2399D01*
X3034Y2362*
X3009Y2378D02*
X3028D01*
X3003Y2462D02*
X3018Y2499D01*
X3034Y2462*
X3009Y2478D02*
X3028D01*
X3003Y2562D02*
X3018Y2599D01*
X3034Y2562*
X3009Y2578D02*
X3028D01*
X3174Y431D02*
X3181Y428D01*
X3184Y421*
X3181Y415*
X3174Y412*
X3153*
Y449*
X3174*
X3181Y446*
X3184Y440*
X3181Y434*
X3174Y431*
X3153*
X3174Y581D02*
X3181Y578D01*
X3184Y571*
X3181Y565*
X3174Y562*
X3153*
Y599*
X3174*
X3181Y596*
X3184Y590*
X3181Y584*
X3174Y581*
X3153*
X3203Y1012D02*
X3218Y1049D01*
X3234Y1012*
X3209Y1028D02*
X3228D01*
X3203Y1112D02*
X3218Y1149D01*
X3234Y1112*
X3209Y1127D02*
X3228D01*
X3203Y1212D02*
X3218Y1249D01*
X3234Y1212*
X3209Y1228D02*
X3228D01*
X3203Y1312D02*
X3218Y1349D01*
X3234Y1312*
X3209Y1328D02*
X3228D01*
X3203Y1412D02*
X3218Y1449D01*
X3234Y1412*
X3209Y1428D02*
X3228D01*
X3203Y1512D02*
X3218Y1549D01*
X3234Y1512*
X3209Y1528D02*
X3228D01*
X3203Y1612D02*
X3218Y1649D01*
X3234Y1612*
X3209Y1628D02*
X3228D01*
X3203Y1712D02*
X3218Y1749D01*
X3234Y1712*
X3209Y1728D02*
X3228D01*
X3203Y1812D02*
X3218Y1849D01*
X3234Y1812*
X3209Y1828D02*
X3228D01*
X3203Y1912D02*
X3218Y1949D01*
X3234Y1912*
X3209Y1928D02*
X3228D01*
X3303Y2362D02*
X3318Y2399D01*
X3334Y2362*
X3309Y2378D02*
X3328D01*
X3303Y2462D02*
X3318Y2499D01*
X3334Y2462*
X3309Y2478D02*
X3328D01*
X3303Y2562D02*
X3318Y2599D01*
X3334Y2562*
X3309Y2578D02*
X3328D01*
X3403Y662D02*
X3418Y699D01*
X3434Y662*
X3409Y678D02*
X3428D01*
X3403Y762D02*
X3418Y799D01*
X3434Y762*
X3409Y778D02*
X3428D01*
X3603Y2362D02*
X3618Y2399D01*
X3634Y2362*
X3609Y2378D02*
X3628D01*
X3603Y2462D02*
X3618Y2499D01*
X3634Y2462*
X3609Y2478D02*
X3628D01*
X3603Y2562D02*
X3618Y2599D01*
X3634Y2562*
X3609Y2578D02*
X3628D01*
X3903Y2362D02*
X3918Y2399D01*
X3934Y2362*
X3909Y2378D02*
X3928D01*
X3903Y2462D02*
X3918Y2499D01*
X3934Y2462*
X3909Y2478D02*
X3928D01*
X3903Y2562D02*
X3918Y2599D01*
X3934Y2562*
X3909Y2578D02*
X3928D01*
X4253Y1012D02*
X4268Y1049D01*
X4284Y1012*
X4259Y1028D02*
X4278D01*
X4253Y1112D02*
X4268Y1149D01*
X4284Y1112*
X4259Y1127D02*
X4278D01*
X4253Y1212D02*
X4268Y1249D01*
X4284Y1212*
X4259Y1228D02*
X4278D01*
X4253Y1312D02*
X4268Y1349D01*
X4284Y1312*
X4259Y1328D02*
X4278D01*
X4253Y1412D02*
X4268Y1449D01*
X4284Y1412*
X4259Y1428D02*
X4278D01*
X4253Y1512D02*
X4268Y1549D01*
X4284Y1512*
X4259Y1528D02*
X4278D01*
X4253Y1612D02*
X4268Y1649D01*
X4284Y1612*
X4259Y1628D02*
X4278D01*
X4253Y1712D02*
X4268Y1749D01*
X4284Y1712*
X4259Y1728D02*
X4278D01*
X4253Y1812D02*
X4268Y1849D01*
X4284Y1812*
X4259Y1828D02*
X4278D01*
X4253Y1912D02*
X4268Y1949D01*
X4284Y1912*
X4259Y1928D02*
X4278D01*
X4253Y2362D02*
X4268Y2399D01*
X4284Y2362*
X4259Y2378D02*
X4278D01*
X4253Y2462D02*
X4268Y2499D01*
X4284Y2462*
X4259Y2478D02*
X4278D01*
X4253Y2562D02*
X4268Y2599D01*
X4284Y2562*
X4259Y2578D02*
X4278D01*
D02*
D19*
X253Y453D03*
Y1053D03*
X353Y203D03*
Y453D03*
Y1053D03*
X453Y2303D03*
Y2403D03*
Y2503D03*
X653Y203D03*
Y453D03*
Y1053D03*
X753Y453D03*
Y1053D03*
Y2303D03*
Y2403D03*
Y2503D03*
X1002Y453D03*
X1053Y2303D03*
Y2403D03*
Y2503D03*
X1103Y453D03*
X1202D03*
X1303D03*
X1353Y2303D03*
Y2403D03*
Y2503D03*
X1403Y453D03*
Y703D03*
Y1053D03*
Y1653D03*
Y1953D03*
X1503Y453D03*
Y703D03*
Y1053D03*
Y1653D03*
Y1953D03*
X1603Y453D03*
Y703D03*
Y1053D03*
Y1653D03*
Y1953D03*
X1703Y453D03*
Y703D03*
Y1053D03*
Y1653D03*
Y1953D03*
X1803Y453D03*
Y703D03*
Y1053D03*
Y1653D03*
Y1953D03*
X1903Y453D03*
Y703D03*
Y1053D03*
Y1653D03*
Y1953D03*
X2003Y703D03*
Y1053D03*
Y1653D03*
Y1953D03*
X2103Y703D03*
Y1053D03*
Y1653D03*
Y1953D03*
X2203Y703D03*
Y1053D03*
Y1653D03*
Y1953D03*
X2303Y703D03*
Y1053D03*
Y1653D03*
Y1953D03*
X2403Y703D03*
Y1053D03*
Y1653D03*
Y1953D03*
X2503Y703D03*
Y1053D03*
Y1653D03*
Y1953D03*
X2553Y353D03*
Y502D03*
X2603Y703D03*
Y1053D03*
Y1653D03*
Y1953D03*
X2703Y703D03*
Y1053D03*
Y1653D03*
Y1953D03*
X2803Y703D03*
Y1053D03*
Y1653D03*
Y1953D03*
X2903Y2303D03*
Y2403D03*
Y2503D03*
X3053Y353D03*
Y502D03*
X3103Y953D03*
Y1053D03*
Y1153D03*
Y1252D03*
Y1353D03*
Y1453D03*
Y1553D03*
Y1653D03*
Y1753D03*
Y1853D03*
X3203Y2303D03*
Y2403D03*
Y2503D03*
X3303Y603D03*
Y703D03*
X3503Y2303D03*
Y2403D03*
Y2503D03*
X3803Y2303D03*
Y2403D03*
Y2503D03*
X4153Y953D03*
Y1053D03*
Y1153D03*
Y1252D03*
Y1353D03*
Y1453D03*
Y1553D03*
Y1653D03*
Y1753D03*
Y1853D03*
Y2303D03*
Y2403D03*
Y2503D03*
X0Y0D02*
M02*
