%FSLAX23Y23*%
%MOIN*%
G04 EasyPC Gerber Version 17.0 Build 3379 *
%ADD70R,0.07000X0.07000*%
%ADD21R,0.07000X0.07000*%
%ADD71C,0.07000*%
%ADD20C,0.07299*%
X0Y0D02*
D02*
D70*
X453Y2303D03*
X753D03*
X1002Y453D03*
X1053Y2303D03*
X1353D03*
X1403Y1653D03*
Y1953D03*
X2803Y703D03*
X2903Y2303D03*
X3103Y1853D03*
X3203Y2303D03*
X3503D03*
X3803D03*
X4153Y1853D03*
Y2303D03*
D02*
D71*
X253Y453D03*
Y1053D03*
X353Y453D03*
Y1053D03*
X453Y2403D03*
Y2503D03*
X653Y453D03*
Y1053D03*
X753Y453D03*
Y1053D03*
Y2403D03*
Y2503D03*
X1053Y2403D03*
Y2503D03*
X1103Y453D03*
X1202D03*
X1303D03*
X1353Y2403D03*
Y2503D03*
X1403Y453D03*
Y703D03*
Y1053D03*
X1503Y453D03*
Y703D03*
Y1053D03*
Y1653D03*
Y1953D03*
X1603Y453D03*
Y703D03*
Y1053D03*
Y1653D03*
Y1953D03*
X1703Y453D03*
Y703D03*
Y1053D03*
Y1653D03*
Y1953D03*
X1803Y453D03*
Y703D03*
Y1053D03*
Y1653D03*
Y1953D03*
X1903Y453D03*
Y703D03*
Y1053D03*
Y1653D03*
Y1953D03*
X2003Y703D03*
Y1053D03*
Y1653D03*
Y1953D03*
X2103Y703D03*
Y1053D03*
Y1653D03*
Y1953D03*
X2203Y703D03*
Y1053D03*
Y1653D03*
Y1953D03*
X2303Y703D03*
Y1053D03*
Y1653D03*
Y1953D03*
X2403Y703D03*
Y1053D03*
Y1653D03*
Y1953D03*
X2503Y703D03*
Y1053D03*
Y1653D03*
Y1953D03*
X2603Y703D03*
Y1053D03*
Y1653D03*
Y1953D03*
X2703Y703D03*
Y1053D03*
Y1653D03*
Y1953D03*
X2803Y1053D03*
Y1653D03*
Y1953D03*
X2903Y2403D03*
Y2503D03*
X3103Y953D03*
Y1053D03*
Y1153D03*
Y1252D03*
Y1353D03*
Y1453D03*
Y1553D03*
Y1653D03*
Y1753D03*
X3203Y2403D03*
Y2503D03*
X3303Y603D03*
Y703D03*
X3503Y2403D03*
Y2503D03*
X3803Y2403D03*
Y2503D03*
X4153Y953D03*
Y1053D03*
Y1153D03*
Y1252D03*
Y1353D03*
Y1453D03*
Y1553D03*
Y1653D03*
Y1753D03*
Y2403D03*
Y2503D03*
D02*
D20*
X2553Y353D03*
Y502D03*
X3053Y353D03*
Y502D03*
D02*
D21*
X353Y203D03*
X653D03*
X0Y0D02*
M02*
