%FSLAX23Y23*%
%MOIN*%
G04 EasyPC Gerber Version 17.0 Build 3379 *
%ADD14R,0.06000X0.06000*%
%ADD17R,0.06000X0.06000*%
%ADD10C,0.00100*%
%ADD18C,0.02500*%
%ADD15C,0.06000*%
%ADD16C,0.06299*%
%ADD19C,0.10000*%
X0Y0D02*
D02*
D10*
X4173Y371D02*
X4163Y367D01*
X4154*
X4145Y371*
X4140Y381*
Y409*
X4145Y418*
X4154Y423*
X4163*
X4173Y418*
X4178Y409*
Y381*
X4173Y371*
X4145Y418*
X4103Y381D02*
X4098Y390D01*
X4088Y395*
X4079*
X4070Y390*
X4065Y381*
X4070Y371*
X4079Y367*
X4088*
X4098Y371*
X4103Y381*
Y395*
X4098Y409*
X4088Y418*
X4079Y423*
X4028Y367D02*
X3981Y423D01*
X3915Y367D02*
X3953D01*
X3920Y399*
X3915Y409*
X3920Y418*
X3929Y423*
X3943*
X3953Y418*
X3873Y371D02*
X3863Y367D01*
X3854*
X3845Y371*
X3840Y381*
Y409*
X3845Y418*
X3854Y423*
X3863*
X3873Y418*
X3878Y409*
Y381*
X3873Y371*
X3845Y418*
X3793Y367D02*
X3774D01*
X3784D02*
Y423D01*
X3793Y413*
X3704Y367D02*
Y423D01*
X3728Y385*
X3690*
X4353Y567D02*
Y623D01*
X4329Y595*
X4306Y623*
Y567*
X4259D02*
Y604D01*
Y618D02*
X4203Y567*
Y604D01*
Y590D02*
X4198Y599D01*
X4188Y604*
X4179*
X4170Y599*
X4165Y590*
Y567*
X4090Y571D02*
X4095Y567D01*
X4104*
X4113*
X4123Y571*
X4128Y581*
Y595*
X4123Y599*
X4113Y604*
X4104*
X4095Y599*
X4090Y595*
Y590*
X4095Y585*
X4104Y581*
X4113*
X4123Y585*
X4128Y590*
X4053Y571D02*
X4043Y567D01*
X4024*
X4015Y571*
Y581*
X4024Y585*
X4043*
X4053Y590*
Y599*
X4043Y604*
X4024*
X4015Y599*
X3903Y567D02*
Y623D01*
X3856Y567*
Y623*
X3828Y599D02*
X3818Y604D01*
X3804*
X3795Y599*
X3790Y590*
Y576*
X3795Y571*
X3804Y567*
X3813*
X3823Y571*
X3828Y576*
Y581*
X3823Y585*
X3813Y590*
X3804*
X3795Y585*
X3790Y581*
Y576D02*
Y567D01*
X3753D02*
Y604D01*
Y590D02*
X3748Y599D01*
X3738Y604*
X3729*
X3720Y599*
X3715Y590*
Y567*
X3668Y604D02*
X3649D01*
X3659Y613D02*
Y571D01*
X3654Y567*
X3649*
X3645Y571*
X3565D02*
X3570Y567D01*
X3579*
X3588*
X3598Y571*
X3603Y581*
Y595*
X3598Y599*
X3588Y604*
X3579*
X3570Y599*
X3565Y595*
Y590*
X3570Y585*
X3579Y581*
X3588*
X3598Y585*
X3603Y590*
X3528Y571D02*
X3518Y567D01*
X3499*
X3490Y571*
Y581*
X3499Y585*
X3518*
X3528Y590*
Y599*
X3518Y604*
X3499*
X3490Y599*
D02*
D14*
X453Y2303D03*
X753D03*
X1002Y453D03*
X1053Y2303D03*
X1353D03*
X1403Y1653D03*
Y1953D03*
X2803Y703D03*
X2903Y2303D03*
X3103Y1853D03*
X3203Y2303D03*
X3503D03*
X3803D03*
X4153Y1853D03*
Y2303D03*
D02*
D15*
X253Y453D03*
Y1053D03*
X353Y453D03*
Y1053D03*
X453Y2403D03*
Y2503D03*
X653Y453D03*
Y1053D03*
X753Y453D03*
Y1053D03*
Y2403D03*
Y2503D03*
X1053Y2403D03*
Y2503D03*
X1103Y453D03*
X1202D03*
X1303D03*
X1353Y2403D03*
Y2503D03*
X1403Y453D03*
Y703D03*
Y1053D03*
X1503Y453D03*
Y703D03*
Y1053D03*
Y1653D03*
Y1953D03*
X1603Y453D03*
Y703D03*
Y1053D03*
Y1653D03*
Y1953D03*
X1703Y453D03*
Y703D03*
Y1053D03*
Y1653D03*
Y1953D03*
X1803Y453D03*
Y703D03*
Y1053D03*
Y1653D03*
Y1953D03*
X1903Y453D03*
Y703D03*
Y1053D03*
Y1653D03*
Y1953D03*
X2003Y703D03*
Y1053D03*
Y1653D03*
Y1953D03*
X2103Y703D03*
Y1053D03*
Y1653D03*
Y1953D03*
X2203Y703D03*
Y1053D03*
Y1653D03*
Y1953D03*
X2303Y703D03*
Y1053D03*
Y1653D03*
Y1953D03*
X2403Y703D03*
Y1053D03*
Y1653D03*
Y1953D03*
X2503Y703D03*
Y1053D03*
Y1653D03*
Y1953D03*
X2603Y703D03*
Y1053D03*
Y1653D03*
Y1953D03*
X2703Y703D03*
Y1053D03*
Y1653D03*
Y1953D03*
X2803Y1053D03*
Y1653D03*
Y1953D03*
X2903Y2403D03*
Y2503D03*
X3103Y953D03*
Y1053D03*
Y1153D03*
Y1252D03*
Y1353D03*
Y1453D03*
Y1553D03*
Y1653D03*
Y1753D03*
X3203Y2403D03*
Y2503D03*
X3303Y603D03*
Y703D03*
X3503Y2403D03*
Y2503D03*
X3803Y2403D03*
Y2503D03*
X4153Y953D03*
Y1053D03*
Y1153D03*
Y1252D03*
Y1353D03*
Y1453D03*
Y1553D03*
Y1653D03*
Y1753D03*
Y2403D03*
Y2503D03*
D02*
D16*
X2553Y353D03*
Y502D03*
X3053Y353D03*
Y502D03*
D02*
D17*
X353Y203D03*
X653D03*
D02*
D18*
X303Y2403D02*
X453D01*
X353Y453D02*
Y203D01*
X453Y2303D02*
Y2053D01*
X1202*
Y1503*
X2303*
Y1653*
X453Y2503D02*
X153D01*
Y853*
X553*
Y1753*
X1002*
Y1252*
X453Y2503D02*
X753D01*
X653Y453D02*
Y203D01*
Y1053D02*
Y1653D01*
X903*
Y153*
X2903*
Y1053*
X2803*
X753Y2403D02*
X453D01*
X753Y2503D02*
X1053D01*
X1002Y453D02*
Y1252D01*
X2503*
Y1053*
X1053Y2303D02*
Y2153D01*
X1603*
Y1953*
X1053Y2403D02*
X753D01*
X1053D02*
X1353D01*
X1202Y453D02*
Y253D01*
X2703*
Y703*
X1303Y603D02*
Y1153D01*
X2203*
Y1053*
X1303Y603D02*
Y453D01*
X1353Y2303D02*
Y2203D01*
X1703*
Y1953*
X1353Y2403D02*
X2903D01*
X1353Y2503D02*
X2903D01*
X1353D02*
X1053D01*
X1403Y453D02*
Y353D01*
X2553*
X1403Y1053D02*
Y703D01*
Y1953D02*
Y1653D01*
X1503Y1053D02*
Y703D01*
Y1953D02*
Y2103D01*
X753*
Y2303*
X1503Y1953D02*
Y1653D01*
X1603Y1053D02*
Y703D01*
Y1953D02*
Y1653D01*
X1703Y1053D02*
Y703D01*
Y1953D02*
Y1653D01*
X1803Y1053D02*
Y703D01*
Y1953D02*
Y1653D01*
X1903Y1053D02*
Y703D01*
Y1953D02*
Y1653D01*
X2003Y1053D02*
Y703D01*
Y1953D02*
Y1653D01*
X2103Y1053D02*
Y703D01*
Y1953D02*
Y1653D01*
X2203Y1053D02*
Y703D01*
Y1953D02*
Y1653D01*
X2303Y1053D02*
Y703D01*
Y1953D02*
Y1653D01*
X2403Y1053D02*
Y703D01*
Y1953D02*
Y1653D01*
X2503Y1053D02*
Y703D01*
Y1953D02*
Y1653D01*
X2553Y353D02*
X2653D01*
Y603*
X2103*
Y703*
X2553Y502D02*
X2003D01*
Y603*
X1303*
X2603Y1053D02*
Y703D01*
Y1953D02*
Y1653D01*
X2703Y1053D02*
Y1353D01*
Y1053D02*
Y703D01*
Y1353D02*
X3103D01*
X2703Y1953D02*
Y2053D01*
X3003*
Y1553*
X3103*
X2703Y1953D02*
Y1653D01*
X2803Y1053D02*
Y703D01*
Y1953D02*
Y1653D01*
X2903Y2303D02*
X1903D01*
Y1953*
X2903Y2503D02*
X3203D01*
X2903D02*
X4353D01*
Y1053*
X4153*
X3053Y353D02*
X3153D01*
Y453*
X3203*
X3103Y1453D02*
X2803D01*
Y1953*
X3203Y453D02*
X3303D01*
Y603*
X3203Y453D02*
X3153D01*
Y502*
X3053*
X3203Y2303D02*
Y2253D01*
X2003*
Y1953*
X3203Y2403D02*
X2903D01*
X3203Y2503D02*
X3503D01*
X3303Y703D02*
Y1053D01*
X4153*
X3503Y2303D02*
Y2203D01*
X2103*
Y1953*
X3503Y2403D02*
X3203D01*
X3803Y2303D02*
Y2153D01*
X2203*
Y1953*
X3803Y2403D02*
X3503D01*
X3803Y2503D02*
X3503D01*
X3903Y1653D02*
X4153D01*
X3903D02*
X3503D01*
Y1353*
X3103*
X4153D02*
X3903D01*
Y1653*
X4153Y1853D02*
X3903D01*
Y1653*
X4153Y2303D02*
Y2103D01*
X2403*
Y1953*
X4153Y2403D02*
X3803D01*
X4153D02*
X4253D01*
Y1853*
X4153*
Y2503D02*
X3803D01*
D02*
D19*
X303Y1853D02*
Y2403D01*
Y1853D02*
X1103D01*
Y1353*
X2703*
X353Y1053D02*
Y1453D01*
X303*
Y1853*
X0Y0D02*
M02*
